<?xml version="1.0" encoding="UTF-8" standalone="no"?>
<svg width="229" height="221" viewBox="0 0 229 221" fill="none" xmlns="http://www.w3.org/2000/svg">
<path fill-rule="evenodd" clip-rule="evenodd" d="M211.179 71.7886L193.212 16.4917C190.017 6.65794 180.853 0 170.513 0L86.8377 0L211.179 71.7886ZM40.5168 8.15812C38.4362 10.5368 36.8079 13.3524 35.7879 16.4917L1.16976 123.035C-2.02542 132.869 1.47488 143.642 9.83998 149.719L40.5168 172.007L40.5168 19.1887V8.15812ZM84.2174 203.758L222.209 124.089L227.23 121.189L227.83 123.035C231.025 132.869 227.525 143.642 219.16 149.719L128.529 215.567C120.164 221.645 108.836 221.645 100.471 215.567L84.2174 203.758ZM80.2952 42.1548L182.43 101.122L80.2952 160.09L80.2952 42.1548Z" fill="#52DE97"/>
</svg>